<svg width="97" height="19" viewBox="0 0 97 19" fill="none" xmlns="http://www.w3.org/2000/svg">
<path d="M4.52557 18H0.571023L6.59659 0.545454H11.3523L17.3693 18H13.4148L9.04261 4.53409H8.90625L4.52557 18ZM4.27841 11.1392H13.6193V14.0199H4.27841V11.1392ZM20.4439 0.545454L24.6626 13.8068H24.8246L29.0518 0.545454H33.1428L27.1257 18H22.37L16.3445 0.545454H20.4439ZM35.2436 18V0.545454H47.005V3.58807H38.9339V7.74716H46.3999V10.7898H38.9339V14.9574H47.0391V18H35.2436ZM64.5384 0.545454V18H61.3509L53.7571 7.0142H53.6293V18H49.9389V0.545454H53.1776L60.7116 11.5227H60.8651V0.545454H64.5384ZM78.3686 0.545454H82.0589V11.8807C82.0589 13.1534 81.755 14.267 81.147 15.2216C80.5447 16.1761 79.701 16.9205 78.6158 17.4545C77.5305 17.983 76.2663 18.2472 74.8232 18.2472C73.3743 18.2472 72.1072 17.983 71.022 17.4545C69.9368 16.9205 69.093 16.1761 68.4908 15.2216C67.8885 14.267 67.5874 13.1534 67.5874 11.8807V0.545454H71.2777V11.5653C71.2777 12.2301 71.4226 12.821 71.7124 13.3381C72.0078 13.8551 72.4226 14.2614 72.9567 14.5568C73.4908 14.8523 74.1129 15 74.8232 15C75.5391 15 76.1612 14.8523 76.6896 14.5568C77.2237 14.2614 77.6357 13.8551 77.9254 13.3381C78.2209 12.821 78.3686 12.2301 78.3686 11.5653V0.545454ZM85.0952 18V0.545454H96.8565V3.58807H88.7855V7.74716H96.2514V10.7898H88.7855V14.9574H96.8906V18H85.0952Z" fill="url(#paint0_linear_655_49233)"/>
<defs>
<linearGradient id="paint0_linear_655_49233" x1="6.50365" y1="1.71951" x2="94.3628" y2="3.85375" gradientUnits="userSpaceOnUse">
<stop stop-color="#ED5675"/>
<stop offset="0.308585" stop-color="#EF5F91"/>
<stop offset="0.51875" stop-color="#E048FF"/>
<stop offset="0.747917" stop-color="#AF85FF"/>
<stop offset="0.982292" stop-color="#0697FB"/>
</linearGradient>
</defs>
</svg>
