<svg width="22" height="20" viewBox="0 0 22 20" fill="none" xmlns="http://www.w3.org/2000/svg">
<path d="M6.59403 1.66675H15.1951C15.7854 1.66675 16.3122 1.68344 16.7845 1.74177C19.3003 2.0001 19.9815 3.08342 19.9815 6.05009V11.3168C19.9815 14.2834 19.3003 15.3667 16.7845 15.6251C16.3122 15.6834 15.7945 15.7001 15.1951 15.7001H6.59403C6.00367 15.7001 5.4769 15.6834 5.00461 15.6251C2.48879 15.3667 1.80762 14.2834 1.80762 11.3168V6.05009C1.80762 3.08342 2.48879 2.0001 5.00461 1.74177C5.4769 1.68344 6.00367 1.66675 6.59403 1.66675Z" stroke="white" stroke-linecap="round" stroke-linejoin="round"/>
<path d="M12.3342 6.93335H15.6765" stroke="white" stroke-linecap="round" stroke-linejoin="round"/>
<path d="M6.12158 11.7583H6.13974H15.6853" stroke="white" stroke-linecap="round" stroke-linejoin="round"/>
<path d="M6.35767 18.3333H15.4401" stroke="white" stroke-linecap="round" stroke-linejoin="round"/>
<path d="M6.53458 6.91667H6.54274" stroke="white" stroke-linecap="round" stroke-linejoin="round"/>
<path d="M9.53141 6.91667H9.53956" stroke="white" stroke-linecap="round" stroke-linejoin="round"/>
</svg>
