<svg width="20" height="20" viewBox="0 0 20 20" fill="none" xmlns="http://www.w3.org/2000/svg">
<path d="M6.2334 15.2917L8.81673 17.2917C9.15006 17.625 9.90006 17.7917 10.4001 17.7917H13.5667C14.5667 17.7917 15.6501 17.0417 15.9001 16.0417L17.9001 9.95833C18.3167 8.79167 17.5667 7.79167 16.3167 7.79167H12.9834C12.4834 7.79167 12.0667 7.375 12.1501 6.79167L12.5667 4.125C12.7334 3.375 12.2334 2.54167 11.4834 2.29167C10.8167 2.04167 9.9834 2.375 9.65006 2.875L6.2334 7.95833" stroke="white" stroke-miterlimit="10"/>
<path d="M1.9834 15.2917V7.12501C1.9834 5.95834 2.4834 5.54167 3.65007 5.54167H4.4834C5.65006 5.54167 6.15007 5.95834 6.15007 7.12501V15.2917C6.15007 16.4583 5.65006 16.875 4.4834 16.875H3.65007C2.4834 16.875 1.9834 16.4583 1.9834 15.2917Z" stroke="white" stroke-linecap="round" stroke-linejoin="round"/>
</svg>
