<svg width="565" height="401" viewBox="0 0 565 401" fill="none" xmlns="http://www.w3.org/2000/svg">
<rect x="0.2" y="0.2" width="577.539" height="400.263" rx="12.0966" fill="#141414"/>
<line x1="136.287" y1="200.332" x2="442.676" y2="200.332" stroke="#363636" stroke-width="1.02471" stroke-dasharray="6.15 6.15"/>
<line x1="207.506" y1="309.464" x2="207.506" y2="92.2249" stroke="#363636" stroke-width="1.02471" stroke-dasharray="6.15 6.15"/>
<line x1="76.8547" y1="91.7125" x2="208.018" y2="91.7125" stroke="#363636" stroke-width="1.02471" stroke-dasharray="6.15 6.15"/>
<line x1="76.8547" y1="308.952" x2="208.018" y2="308.952" stroke="#363636" stroke-width="1.02471" stroke-dasharray="6.15 6.15"/>
<line y1="-0.512357" x2="217.239" y2="-0.512357" transform="matrix(-1.19249e-08 -1 -1 1.19249e-08 371.971 309.464)" stroke="#363636" stroke-width="1.02471" stroke-dasharray="6.15 6.15"/>
<line y1="-0.512357" x2="131.163" y2="-0.512357" transform="matrix(-1 0 0 1 503.134 92.2249)" stroke="#363636" stroke-width="1.02471" stroke-dasharray="6.15 6.15"/>
<line y1="-0.512357" x2="131.163" y2="-0.512357" transform="matrix(-1 0 0 1 503.134 309.464)" stroke="#363636" stroke-width="1.02471" stroke-dasharray="6.15 6.15"/>
<rect x="51.7501" y="64.0439" width="56.3593" height="56.3593" rx="5.63593" fill="#141414" stroke="#4E4E4E" stroke-width="1.02471"/>
<path d="M95.2984 82.3427C94.1687 82.8431 92.9535 83.177 91.6718 83.3349C92.9749 82.5613 93.9774 81.3274 94.4479 79.8697C93.2285 80.5844 91.8776 81.1096 90.4404 81.3863C89.2927 80.1694 87.6558 79.4146 85.842 79.4146C82.358 79.4146 79.5341 82.2137 79.5341 85.6653C79.5341 86.1538 79.5913 86.6294 79.6989 87.0914C74.4574 86.8284 69.8087 84.3366 66.6987 80.5554C66.1521 81.4793 65.8447 82.5613 65.8447 83.703C65.8447 85.8728 66.9557 87.783 68.6499 88.9085C67.6158 88.8769 66.6423 88.5892 65.7901 88.128C65.7901 88.1468 65.7901 88.175 65.7901 88.2015C65.7901 91.2338 67.965 93.7588 70.8479 94.3335C70.321 94.4778 69.7643 94.5581 69.1904 94.5581C68.7831 94.5581 68.386 94.512 68.0018 94.4428C68.8044 96.9209 71.1331 98.7321 73.8921 98.7859C71.7334 100.46 69.0145 101.462 66.0582 101.462C65.5476 101.462 65.048 101.433 64.5544 101.373C67.3476 103.142 70.6643 104.178 74.2243 104.178C85.8249 104.178 92.1713 94.652 92.1713 86.3877C92.1713 86.117 92.1628 85.8472 92.15 85.5808C93.3882 84.7063 94.4556 83.6031 95.2984 82.3427Z" fill="#03A9F4"/>
<rect x="109.135" y="172.665" width="56.3593" height="56.3593" rx="5.63593" fill="#141414" stroke="#4E4E4E" stroke-width="1.02471"/>
<path d="M155.247 194.184L150.977 196.532L146.707 200.588V214.507H152.685C154.1 214.507 155.247 213.36 155.247 211.945V194.184Z" fill="#4CAF50"/>
<path d="M119.383 194.184L122.469 195.644L127.922 200.588V214.507H121.944C120.529 214.507 119.383 213.36 119.383 211.945V194.184Z" fill="#1E88E5"/>
<path d="M146.709 189.915L137.315 196.959L127.922 189.915L127.068 194.867L127.922 200.589L137.315 207.634L146.709 200.589L147.563 194.867L146.709 189.915Z" fill="#E53935"/>
<path d="M119.383 190.852V194.184L127.922 200.589V189.915L125.254 187.916C124.619 187.439 123.847 187.182 123.053 187.182C121.026 187.182 119.383 188.825 119.383 190.852Z" fill="#C62828"/>
<path d="M155.247 190.852V194.184L146.707 200.589V189.915L149.375 187.916C150.01 187.439 150.782 187.182 151.576 187.182C153.604 187.182 155.247 188.825 155.247 190.852Z" fill="#FBC02D"/>
<rect x="51.7501" y="281.284" width="56.3593" height="56.3593" rx="5.63593" fill="#141414" stroke="#4E4E4E" stroke-width="1.02471"/>
<path d="M95.2993 320.564C95.2993 322.923 93.3882 324.834 91.0296 324.834H68.8275C66.4698 324.834 64.5579 322.923 64.5579 320.564V298.362C64.5579 296.004 66.4698 294.093 68.8275 294.093H91.0296C93.3882 294.093 95.2993 296.004 95.2993 298.362V320.564Z" fill="#0288D1"/>
<path d="M69.6812 305.194H73.9508V319.711H69.6812V305.194ZM71.8032 303.486H71.7793C70.5052 303.486 69.6812 302.537 69.6812 301.351C69.6812 300.139 70.5308 299.217 71.8279 299.217C73.1268 299.217 73.9269 300.139 73.9508 301.351C73.9508 302.536 73.1268 303.486 71.8032 303.486ZM90.1754 319.711H85.9058V311.941C85.9058 310.064 84.8597 308.783 83.1801 308.783C81.8983 308.783 81.2049 309.647 80.8685 310.482C80.7455 310.781 80.7822 311.608 80.7822 312.025V319.711H76.5126V305.194H80.7822V307.428C81.3979 306.475 82.362 305.194 84.8281 305.194C87.8835 305.194 90.1746 307.115 90.1746 311.406L90.1754 319.711Z" fill="white"/>
<rect x="468.81" y="64.0439" width="56.3593" height="56.3593" rx="5.63593" fill="#141414" stroke="#4E4E4E" stroke-width="1.02471"/>
<path d="M497.046 75.1449C498.013 75.1467 498.964 75.2284 499.889 75.383V85.3513L506.956 78.3024C507.737 78.8568 508.467 79.4734 509.142 80.1468C509.817 80.8203 510.437 81.5506 510.993 82.3288L503.926 89.3777H513.92C514.075 90.2999 514.157 91.2452 514.157 92.2118V92.2349C514.157 93.2015 514.075 94.1486 513.92 95.0708H503.924L510.993 102.118C510.437 102.896 509.817 103.627 509.144 104.3H509.142C508.467 104.973 507.737 105.592 506.958 106.144L499.889 99.0954V109.064C498.966 109.218 498.015 109.3 497.047 109.302H497.023C496.055 109.3 495.107 109.218 494.183 109.064V99.0954L487.116 106.144C485.555 105.037 484.19 103.674 483.079 102.118L490.146 95.0708H480.152C479.995 94.1468 479.913 93.1962 479.913 92.2296V92.18C479.914 91.9291 479.931 91.6227 479.954 91.3056L479.962 91.2103C480.032 90.3179 480.152 89.3777 480.152 89.3777H490.146L483.079 82.3288C483.633 81.5506 484.251 80.822 484.926 80.1504L484.929 80.1468C485.603 79.4734 486.335 78.8568 487.116 78.3024L494.183 85.3513V75.383C495.107 75.2284 496.057 75.1467 497.026 75.1449H497.046ZM497.044 87.9544H497.028C495.756 87.9544 494.537 88.1872 493.411 88.6101C492.989 89.7313 492.756 90.9467 492.754 92.2154V92.2314C492.756 93.5001 492.989 94.7155 493.413 95.8367C494.537 96.2596 495.756 96.4923 497.028 96.4923H497.044C498.316 96.4923 499.534 96.2596 500.659 95.8367C501.082 94.7137 501.316 93.5001 501.316 92.2314V92.2154C501.316 90.9467 501.082 89.7313 500.659 88.6101C499.534 88.1872 498.316 87.9544 497.044 87.9544Z" fill="#FF4A00"/>
<rect x="411.427" y="172.665" width="56.3593" height="56.3593" rx="5.63593" fill="#141414" stroke="#4E4E4E" stroke-width="1.02471"/>
<path d="M437.044 206.823C437.044 207.766 437.809 208.531 438.752 208.531H453.269C454.211 208.531 454.976 207.766 454.976 206.823V194.014C454.976 193.072 454.211 192.306 453.269 192.306H438.752C437.809 192.306 437.044 193.072 437.044 194.014V206.823Z" fill="#03A9F4"/>
<path d="M454.977 194.846V194.014C454.977 193.648 454.86 193.311 454.664 193.033L445.045 198.953L438.605 194.977L438.006 196.575L445.229 200.845L454.977 194.846Z" fill="#B3E5FC"/>
<path d="M442.168 215.754L424.235 212.339V188.429L442.168 185.013V215.754Z" fill="#0277BD"/>
<path d="M437.228 195.987C436.29 194.898 435.053 194.353 433.532 194.353C431.916 194.353 430.622 194.925 429.643 196.064C428.666 197.206 428.175 198.701 428.175 200.544C428.175 202.29 428.657 203.715 429.618 204.801C430.58 205.888 431.832 206.432 433.357 206.432C434.928 206.432 436.201 205.875 437.177 204.746C438.153 203.624 438.639 202.147 438.639 200.306C438.639 198.523 438.169 197.083 437.228 195.987ZM435.377 203.18C434.892 203.837 434.234 204.164 433.402 204.164C432.6 204.164 431.951 203.828 431.451 203.151C430.955 202.48 430.708 201.561 430.708 200.409C430.708 199.268 430.955 198.347 431.451 197.655C431.951 196.963 432.619 196.621 433.462 196.621C434.283 196.621 434.929 196.956 435.398 197.627C435.872 198.305 436.109 199.245 436.109 200.453C436.11 201.619 435.863 202.525 435.377 203.18Z" fill="white"/>
<rect x="468.81" y="281.284" width="56.3593" height="56.3593" rx="5.63593" fill="#141414" stroke="#4E4E4E" stroke-width="1.02471"/>
<path d="M514.376 322.006H508.032C507.541 322.006 507.152 321.617 507.152 321.125V297.718C507.152 297.226 507.541 296.838 508.032 296.838H514.376C514.868 296.838 515.257 297.226 515.257 297.718V321.125C515.257 321.617 514.868 322.006 514.376 322.006ZM486.153 321.695L496.665 300.773C496.873 300.333 496.717 299.815 496.277 299.608L490.607 296.76C490.166 296.553 489.648 296.708 489.441 297.148L478.929 318.07C478.722 318.51 478.877 319.028 479.317 319.235L484.988 322.083C485.428 322.291 485.946 322.135 486.153 321.695ZM501.715 321.617L506.22 298.806C506.324 298.34 506.013 297.873 505.547 297.77L499.332 296.527C498.866 296.423 498.4 296.734 498.297 297.2L493.791 320.012C493.688 320.478 493.999 320.944 494.49 321.048L500.705 322.291C501.171 322.394 501.611 322.083 501.715 321.617Z" fill="#6C00CB"/>
<mask id="mask0_655_48652" style="mask-type:luminance" maskUnits="userSpaceOnUse" x="478" y="296" width="38" height="27">
<path d="M514.376 322.006H508.032C507.541 322.006 507.152 321.617 507.152 321.125V297.718C507.152 297.226 507.541 296.838 508.032 296.838H514.376C514.868 296.838 515.257 297.226 515.257 297.718V321.125C515.257 321.617 514.868 322.006 514.376 322.006ZM486.153 321.695L496.665 300.773C496.873 300.333 496.717 299.815 496.277 299.608L490.607 296.76C490.166 296.553 489.648 296.708 489.441 297.148L478.929 318.07C478.722 318.51 478.877 319.028 479.317 319.235L484.988 322.083C485.428 322.291 485.946 322.135 486.153 321.695ZM501.715 321.617L506.22 298.806C506.324 298.34 506.013 297.873 505.547 297.77L499.332 296.527C498.866 296.423 498.4 296.734 498.297 297.2L493.791 320.012C493.688 320.478 493.999 320.944 494.49 321.048L500.705 322.291C501.171 322.394 501.611 322.083 501.715 321.617Z" fill="white"/>
</mask>
<g mask="url(#mask0_655_48652)">
<path d="M517.483 294.3H476.624V324.543H517.483V294.3Z" fill="#6C00CB"/>
<mask id="mask1_655_48652" style="mask-type:luminance" maskUnits="userSpaceOnUse" x="476" y="294" width="42" height="31">
<path d="M517.483 294.3H476.624V324.543H517.483V294.3Z" fill="white"/>
</mask>
<g mask="url(#mask1_655_48652)">
<path d="M517.483 294.3H476.624V324.543H517.483V294.3Z" fill="#6C00CB"/>
<mask id="mask2_655_48652" style="mask-type:luminance" maskUnits="userSpaceOnUse" x="476" y="294" width="42" height="31">
<path d="M517.483 294.3H476.624V324.543H517.483V294.3Z" fill="white"/>
</mask>
<g mask="url(#mask2_655_48652)">
<path d="M517.483 294.093H476.495V324.673H517.483V294.093Z" fill="#6C00CB"/>
</g>
</g>
</g>
<rect x="246.956" y="157.806" width="85.0512" height="85.0512" fill="#141414"/>
<path d="M315.86 196.297C312.914 196.297 310.36 197.978 309.088 200.431L298.72 196.952C298.905 196.119 299.021 195.262 299.021 194.376C299.021 191.167 297.725 188.181 295.441 185.998L301.312 179.094C302.477 179.812 303.842 180.236 305.308 180.236C309.512 180.236 312.936 176.819 312.936 172.607C312.936 168.396 309.519 164.979 305.308 164.979C301.096 164.979 297.679 168.396 297.679 172.607C297.679 174.513 298.388 176.256 299.545 177.591L293.614 184.564C291.762 183.384 289.633 182.759 287.404 182.759C283.987 182.759 280.925 184.248 278.796 186.6L270.472 180.475C271.027 179.418 271.344 178.215 271.344 176.942C271.344 172.738 267.926 169.313 263.715 169.313C259.503 169.313 256.086 172.731 256.086 176.942C256.086 181.154 259.503 184.571 263.715 184.571C265.813 184.571 267.718 183.715 269.099 182.342L277.423 188.467C276.389 190.203 275.788 192.216 275.788 194.375C275.788 196.096 276.174 197.723 276.852 199.197L268.706 203.956C267.31 202.236 265.173 201.125 262.782 201.125C258.578 201.125 255.153 204.542 255.153 208.754C255.153 212.965 258.57 216.383 262.782 216.383C266.993 216.383 270.411 212.965 270.411 208.754C270.411 207.767 270.218 206.825 269.871 205.954L278.024 201.194C279.937 203.825 282.922 205.622 286.332 205.939L286.478 221.551C282.829 222.114 280.022 225.269 280.022 229.08C280.022 233.284 283.439 236.708 287.651 236.708C291.862 236.708 295.279 233.291 295.279 229.08C295.279 225.269 292.464 222.106 288.8 221.551L288.646 205.923C292.811 205.476 296.321 202.815 297.987 199.151L308.355 202.63C308.285 203.054 308.239 203.486 308.239 203.926C308.239 208.13 311.656 211.554 315.868 211.554C320.079 211.554 323.497 208.137 323.497 203.926C323.497 199.714 320.064 196.296 315.86 196.296L315.86 196.297ZM305.308 167.301C308.239 167.301 310.623 169.685 310.623 172.616C310.623 175.547 308.239 177.931 305.308 177.931C302.376 177.931 299.993 175.547 299.993 172.616C299.993 169.685 302.377 167.301 305.308 167.301ZM263.723 182.266C260.792 182.266 258.408 179.882 258.408 176.951C258.408 174.019 260.792 171.635 263.723 171.635C266.655 171.635 269.038 174.019 269.038 176.951C269.038 179.882 266.654 182.266 263.723 182.266ZM262.79 214.062C259.858 214.062 257.474 211.678 257.474 208.747C257.474 205.815 259.858 203.432 262.79 203.432C265.721 203.432 268.105 205.815 268.105 208.747C268.105 211.678 265.714 214.062 262.79 214.062ZM292.959 229.074C292.959 232.005 290.575 234.389 287.644 234.389C284.712 234.389 282.329 232.005 282.329 229.074C282.329 226.142 284.712 223.758 287.644 223.758C290.575 223.759 292.959 226.15 292.959 229.074ZM287.413 203.672C282.284 203.672 278.11 199.498 278.11 194.369C278.11 189.239 282.284 185.066 287.413 185.066C289.503 185.066 291.471 185.745 293.113 187.018C295.396 188.792 296.708 191.476 296.708 194.361C296.708 199.506 292.535 203.672 287.413 203.672H287.413ZM315.862 209.233C312.931 209.233 310.547 206.849 310.547 203.918C310.547 200.987 312.931 198.603 315.862 198.603C318.793 198.603 321.177 200.987 321.177 203.918C321.177 206.849 318.793 209.233 315.862 209.233Z" fill="#9B9B9B"/>
<rect x="0.2" y="0.2" width="577.539" height="400.263" rx="12.0966" stroke="url(#paint0_linear_655_48652)" stroke-width="0.4"/>
<defs>
<linearGradient id="paint0_linear_655_48652" x1="288.969" y1="0" x2="288.969" y2="400.663" gradientUnits="userSpaceOnUse">
<stop stop-color="#A4A4A4"/>
<stop offset="1" stop-color="#A4A4A4" stop-opacity="0.5"/>
</linearGradient>
</defs>
</svg>
